<svg version="1.1" id="Layer_1" xmlns="http://www.w3.org/2000/svg" xmlns:xlink="http://www.w3.org/1999/xlink" x="0px" y="0px"
	 width="100%" viewBox="0 0 107 150" enable-background="new 0 0 107 150" xml:space="preserve">
<path fill="none" opacity="1.000000" stroke="#FFFFFF" stroke-linecap="round" stroke-linejoin="round" stroke-width="2.000000"
	d="
M24.000000,106.000000 
	C19.641178,107.484840 15.649574,109.779778 13.111112,113.574333 
	C11.189921,116.446167 10.693075,119.575005 13.380841,123.091087 
	C18.568399,129.877335 26.197166,132.207993 33.549835,133.764603 
	C50.491112,137.351181 67.618851,137.526459 84.510727,132.536316 
	C88.942810,131.227005 93.024849,129.296814 97.011604,127.020317 
	C104.596695,122.689125 106.703171,115.344360 97.500000,109.500000 
"/>
<path fill="none" opacity="1.000000" stroke="#FFFFFF" stroke-linecap="round" stroke-linejoin="round" stroke-width="3.000000"
	d="
M94.500000,86.500000 
	C91.209198,84.788033 87.480324,84.606178 83.982224,84.130844 
	C71.888290,82.487480 59.624809,82.357628 47.518692,83.252792 
	C40.208450,83.793335 32.753109,83.790146 25.432951,85.749504 
	C21.273342,86.862892 20.909420,88.976730 21.042772,91.998116 
	C21.357548,99.130066 24.359148,105.361435 29.072636,110.432487 
	C39.054005,121.171051 51.860012,125.460510 65.947166,122.266945 
	C79.683975,119.152809 89.291565,110.132248 93.965462,96.488167 
	C94.391747,95.243767 94.333328,93.833336 94.500000,92.500000 
"/>
<path fill="none" opacity="1.000000" stroke="#FFFFFF" stroke-linecap="round" stroke-linejoin="round" stroke-width="2.000000"
	d="
M27.500000,110.000000 
	C25.603598,111.067558 23.675941,111.982567 21.942751,113.431519 
	C18.307024,116.470993 17.634974,120.129768 22.968132,124.043427 
	C29.426252,128.782593 37.128490,130.127991 44.520752,130.755585 
	C58.109013,131.909210 71.854370,131.896744 84.997246,126.992615 
	C87.668571,125.995834 90.072441,124.487518 92.561432,123.111092 
	C96.799805,120.767265 96.567680,117.976707 94.500000,114.500000 
"/>
<path fill="none" opacity="1.000000" stroke="#FFFFFF" stroke-linecap="round" stroke-linejoin="round" stroke-width="3.000000"
	d="
M22.000000,89.000000 
	C29.598787,91.837280 37.626671,91.550987 45.503838,91.917503 
	C59.354134,92.561935 73.164627,90.938271 87.000870,90.529564 
	C89.234856,90.463577 91.172577,88.788399 93.500000,89.500000 
"/>
<path fill="none" opacity="1.000000" stroke="#FFFFFF" stroke-linecap="round" stroke-linejoin="round" stroke-width="3.000000"
	d="
M75.500000,46.000000 
	C70.085800,43.846603 68.729240,41.660168 69.521332,36.002987 
	C69.897141,33.318932 70.422752,30.649393 71.014450,28.003231 
	C72.807648,19.983770 69.674805,15.999999 61.500000,16.000000 
"/>
<path fill="none" opacity="1.000000" stroke="#FFFFFF" stroke-linecap="round" stroke-linejoin="round" stroke-width="3.000000"
	d="
M38.500000,46.000000 
	C44.285587,46.908089 45.983299,49.540989 45.081436,55.013420 
	C44.481426,58.654243 43.593281,62.241810 43.415638,65.996010 
	C43.046459,73.797836 46.715500,75.106323 52.500000,76.000000 
"/>
<path fill="none" opacity="1.000000" stroke="#FFFFFF" stroke-linecap="round" stroke-linejoin="round" stroke-width="3.000000"
	d="
M73.000000,46.500000 
	C69.001961,48.398911 69.270775,52.038807 69.555672,55.495411 
	C69.777359,58.185017 70.269394,60.902542 71.044907,63.486526 
	C73.061203,70.204819 68.914734,76.371063 61.500000,76.000000 
"/>
<path fill="none" opacity="1.000000" stroke="#FFFFFF" stroke-linecap="round" stroke-linejoin="round" stroke-width="3.000000"
	d="
M52.500000,16.000000 
	C45.174850,16.000002 41.505798,21.125578 43.668457,29.456268 
	C44.406345,32.298649 44.293827,35.220493 45.374157,38.048080 
	C46.730770,41.598797 43.013638,43.423485 41.500000,46.000000 
"/>
</svg>